<?xml version="1.0" encoding="UTF-8" standalone="no"?>
<svg
   width="1152.8047"
   height="326.35825"
   viewBox="0 0 305.01337 86.348953"
   version="1.1"
   id="svg8"
   xmlns="http://www.w3.org/2000/svg"
   xmlns:svg="http://www.w3.org/2000/svg">
  <defs
     id="defs8" />
  <path
     d="m 94.803247,46.997027 v 20.938861 c 0,9.37354 7.060583,17.195054 16.130123,18.382225 V 46.601215 a 1.4938187,1.4938187 0 0 1 1.49117,-1.491173 h 19.32598 c -0.94349,-9.313216 -8.88698,-16.647638 -18.44334,-16.647638 -10.16516,0 -18.503933,8.339032 -18.503933,18.534623 M 164.61956,28.462404 v 39.686471 a 1.4938187,1.4938187 0 0 1 -1.49117,1.491173 h -7.79136 a 1.4935541,1.4935541 0 0 1 -1.49117,-1.491173 V 28.462404 c -9.06954,1.186906 -16.13038,9.008684 -16.13038,18.382225 V 67.78349 c 0,10.19559 8.33903,18.534623 18.53462,18.534623 h 5.96522 c 10.19533,0 18.53436,-8.339033 18.53436,-18.534623 V 46.844629 c 0,-9.373805 -7.06058,-17.195319 -16.13012,-18.382225"
     class="st0"
     style="fill:#6750a4;stroke-width:0.304344"
     id="path1" />
  <path
     d="m 190.43436,47.002512 v 20.93928 c 0,9.37398 7.06092,17.195775 16.13055,18.38274 V 46.606857 c 0,-0.821745 0.66957,-1.491315 1.49132,-1.491315 h 19.32622 c -0.94348,-9.31311 -8.88702,-16.647945 -18.44361,-16.647945 -10.16529,0 -18.50448,8.33919 -18.50448,18.534915"
     class="st0"
     style="fill:#6750a4;stroke-width:0.30435"
     id="path2" />
  <path
     d="m 190.43436,52.937337 v -20.93928 c 0,-9.37398 7.06092,-17.195775 16.13055,-18.38274 v 39.68724"
     class="st0"
     style="fill:#6750a4;stroke-width:0.30435"
     id="path3" />
  <path
     d="m 234.89254,28.31027 v 57.977416 c 9.06927,-1.186906 16.13012,-9.008685 16.13012,-18.382489 V 28.310535 Z M 69.78615,69.640048 A 1.4938187,1.4938187 0 0 1 68.294713,68.148875 V 45.87071 A 1.4842938,1.4842938 0 0 1 69.69487,44.897055 H 89.020587 C 88.077095,35.583839 80.133874,28.249417 70.577244,28.249417 c -10.195326,0 -18.534358,8.339033 -18.534358,18.534358 v 20.938861 c 0,7.973912 5.113009,14.821772 12.234444,17.408571 0.03069,0 0.06085,0.03043 0.09154,0.03043 0.06085,0.03043 0.121707,0.03043 0.152134,0.06085 a 18.573516,18.573516 0 0 0 6.11709,1.034772 c 9.556629,0 17.469423,-7.334687 18.443342,-16.647373 H 69.78615 Z M 278.1093,86.348539 V 46.631642 a 1.4938187,1.4938187 0 0 1 1.49117,-1.491173 h 7.79135 a 1.4938187,1.4938187 0 0 1 1.49118,1.491173 v 39.716897 c 9.06953,-1.186906 16.13038,-9.008684 16.13038,-18.382489 V 47.027189 c 0,-10.195326 -8.33903,-18.534358 -18.53462,-18.534358 h -5.96522 c -10.19533,0 -18.53436,8.339032 -18.53436,18.534622 v 20.938862 c 0,9.37354 7.06058,17.195054 16.13012,18.382224"
     class="st0"
     style="fill:#6750a4;stroke-width:0.304344"
     id="path4" />
  <path
     d="m 232.5564,8.9283271 c -0.15217,0.091305 -0.24348,0.18261 -0.30435,0.334785 0.0609,0.06087 0.18261,0.12174 0.33479,0.12174 l 9.7392,0.18261 c 0.48696,0 1.09566,-0.334785 1.33914,-0.760875 l 4.83916,-8.43049504 c 0.0913,-0.152175 0.0913,-0.273915 0.0609,-0.36522 -0.15217,-0.030435 -0.30435,0 -0.42609,0.091305 z"
     class="st0"
     style="fill:#6750a4;stroke-width:0.30435"
     id="path5" />
  <path
     d="m 248.9913,0.61957206 -4.83916,8.43049504 c -0.18261,0.30435 -0.45653,0.54783 -0.79131,0.760875 -0.33479,0.18261 -0.70001,0.3043499 -1.03479,0.3043499 l -9.7392,-0.1826099 c -0.12174,0 -0.24348,-0.030435 -0.33479,-0.06087 0,0.030435 0.0304,0.030435 0.0304,0.06087 l 5.35656,9.4348499 c 0.21304,0.36522 0.63913,0.48696 1.00435,0.273915 l 15.58272,-8.82615 c 0.36522,-0.213045 0.48696,-0.639135 0.27392,-1.0043549 l -5.35656,-9.43485004 c 0,-0.030435 -0.0304,-0.030435 -0.0304,-0.06087 -0.0304,0.12174 -0.0609,0.213045 -0.12174,0.30435"
     class="st0"
     style="fill:#6750a4;stroke-width:0.30435"
     id="path6" />
  <path
     d="m 23.738911,28.431977 h 1.004346 c 9.586792,0 17.560704,7.21298 18.778036,16.495505 h -20.20862 c -0.821521,0 -1.5216,0.669387 -1.5216,1.5216 V 66.231464 C 12.265135,65.257545 4.7783148,57.161926 4.7783148,47.392574 c 0,-10.439004 8.5215922,-18.960597 18.9605962,-18.960597"
     class="st0"
     style="fill:#6750a4;stroke-width:0.304344"
     id="path7" />
  <path
     d="M 19.782647,86.135552 H 18.778036 C 9.1912446,86.135552 1.2173326,78.922572 0,69.640048 h 20.20862 c 0.821521,0 1.5216,-0.669388 1.5216,-1.5216 V 48.335802 c 9.525938,0.974183 17.012759,9.069802 17.012759,18.839154 0,10.439004 -8.521593,18.960596 -18.960597,18.960596"
     class="st0"
     style="fill:#6750a4;stroke-width:0.304344"
     id="path8" />
</svg>
