<?xml version="1.0" encoding="UTF-8" standalone="no"?>
<!DOCTYPE svg PUBLIC "-//W3C//DTD SVG 1.1//EN"
 "http://www.w3.org/Graphics/SVG/1.1/DTD/svg11.dtd">
<!-- Generated by graphviz version 2.43.0 (0)
 -->
<!-- Title: %3 Pages: 1 -->
<svg width="224pt" height="131pt"
 viewBox="0.00 0.00 223.84 131.00" xmlns="http://www.w3.org/2000/svg" xmlns:xlink="http://www.w3.org/1999/xlink">
<g id="graph0" class="graph" transform="scale(1 1) rotate(0) translate(4 127)">
<title>%3</title>
<polygon fill="white" stroke="transparent" points="-4,4 -4,-127 219.84,-127 219.84,4 -4,4"/>
<!-- users -->
<g id="node1" class="node">
<title>users</title>
<ellipse fill="none" stroke="black" cx="36.4" cy="-18" rx="36.29" ry="18"/>
<text text-anchor="middle" x="36.4" y="-14.3" font-family="Times,serif" font-size="14.00">users</text>
</g>
<!-- election -->
<g id="node2" class="node">
<title>election</title>
<ellipse fill="none" stroke="black" cx="168.4" cy="-18" rx="47.39" ry="18"/>
<text text-anchor="middle" x="168.4" y="-14.3" font-family="Times,serif" font-size="14.00">election</text>
</g>
<!-- users&#45;&gt;election -->
<g id="edge3" class="edge">
<title>users&#45;&gt;election</title>
<path fill="none" stroke="black" d="M72.82,-18C84.5,-18 97.74,-18 110.56,-18"/>
<polygon fill="black" stroke="black" points="110.72,-21.5 120.72,-18 110.72,-14.5 110.72,-21.5"/>
<text text-anchor="middle" x="96.87" y="-24.8" font-family="Times,serif" font-size="14.00">vote</text>
</g>
<!-- community -->
<g id="node3" class="node">
<title>community</title>
<ellipse fill="none" stroke="black" cx="102.4" cy="-105" rx="62.29" ry="18"/>
<text text-anchor="middle" x="102.4" y="-101.3" font-family="Times,serif" font-size="14.00">community</text>
</g>
<!-- community&#45;&gt;users -->
<g id="edge1" class="edge">
<title>community&#45;&gt;users</title>
<path fill="none" stroke="black" d="M89.36,-87.21C79.65,-74.71 66.25,-57.45 55.36,-43.43"/>
<polygon fill="black" stroke="black" points="57.86,-40.93 48.96,-35.18 52.33,-45.23 57.86,-40.93"/>
<text text-anchor="middle" x="101.9" y="-57.8" font-family="Times,serif" font-size="14.00">manage</text>
</g>
<!-- community&#45;&gt;election -->
<g id="edge2" class="edge">
<title>community&#45;&gt;election</title>
<path fill="none" stroke="black" d="M117.93,-87.24C123.01,-81.57 128.57,-75.12 133.4,-69 139.66,-61.06 146.12,-52.08 151.76,-43.96"/>
<polygon fill="black" stroke="black" points="154.75,-45.78 157.51,-35.55 148.97,-41.83 154.75,-45.78"/>
<text text-anchor="middle" x="175.4" y="-57.8" font-family="Times,serif" font-size="14.00">organise</text>
</g>
</g>
</svg>
