<?xml version="1.0" encoding="UTF-8" standalone="no"?>
<!-- Created with Inkscape (http://www.inkscape.org/) -->

<svg
   width="1242"
   height="2688"
   viewBox="0 0 328.6125 711.2"
   version="1.1"
   id="svg1"
   sodipodi:docname="splash.svg"
   inkscape:version="1.4 (e7c3feb100, 2024-10-09)"
   inkscape:export-filename="splash.png"
   inkscape:export-xdpi="96"
   inkscape:export-ydpi="96"
   xmlns:inkscape="http://www.inkscape.org/namespaces/inkscape"
   xmlns:sodipodi="http://sodipodi.sourceforge.net/DTD/sodipodi-0.dtd"
   xmlns="http://www.w3.org/2000/svg"
   xmlns:svg="http://www.w3.org/2000/svg">
  <sodipodi:namedview
     id="namedview1"
     pagecolor="#ffffff"
     bordercolor="#000000"
     borderopacity="0.25"
     inkscape:showpageshadow="2"
     inkscape:pageopacity="0.0"
     inkscape:pagecheckerboard="0"
     inkscape:deskcolor="#d1d1d1"
     inkscape:document-units="px"
     inkscape:zoom="0.28716542"
     inkscape:cx="1554.853"
     inkscape:cy="2078.9411"
     inkscape:window-width="2256"
     inkscape:window-height="1424"
     inkscape:window-x="0"
     inkscape:window-y="0"
     inkscape:window-maximized="1"
     inkscape:current-layer="g240"
     inkscape:export-bgcolor="#ffffffff" />
  <defs
     id="defs1" />
  <g
     id="layer1">
    <g
       id="g240"
       transform="matrix(0.26458333,0,0,0.26458333,-124.12839,24.914392)">
      <path
         class="st0"
         d="m 876.84556,1112.7266 v 79.1399 c 0,35.4289 26.6866,64.9914 60.9653,69.4775 v -150.1128 c 0,-3.1058 2.5307,-5.6364 5.6365,-5.6364 h 73.04334 c -3.5659,-35.1989 -33.58844,-62.9209 -69.70754,-62.9209 v 0 c -38.4197,0 -69.9376,31.518 -69.9376,70.0527 z"
         id="path230"
         style="fill:#6750a4;stroke-width:1.15029" />
      <path
         class="st0"
         d="m 1140.722,1042.6739 v 149.9978 c 0,3.1058 -2.5307,5.6364 -5.6365,5.6364 h -29.4474 c -3.1057,0 -5.6363,-2.5306 -5.6363,-5.6364 v -149.9978 c -34.2787,4.4861 -60.9654,34.0486 -60.9654,69.4775 v 79.1399 c 0,38.5347 31.5179,70.0527 70.0526,70.0527 v 0 c 3.7959,0 18.7497,0 22.5458,0 v 0 c 38.5346,0 70.0526,-31.518 70.0526,-70.0527 v -79.1399 c 0,-35.4289 -26.6867,-64.9914 -60.9654,-69.4775 z"
         id="path231"
         style="fill:#6750a4;stroke-width:1.15029" />
      <g
         id="g233"
         transform="matrix(1.1502895,0,0,1.1502895,141.12033,646.05411)">
        <path
           class="st0"
           d="m 953.8,405.7 v 68.8 c 0,30.8 23.2,56.5 53,60.4 V 404.4 c 0,-2.7 2.2,-4.9 4.9,-4.9 h 63.5 c -3.1,-30.6 -29.2,-54.7 -60.6,-54.7 v 0 c -33.4,0 -60.8,27.4 -60.8,60.9 z"
           id="path232"
           style="fill:#6750a4" />
        <path
           class="st0"
           d="m 953.8,425.2 v -68.8 c 0,-30.8 23.2,-56.5 53,-60.4 v 130.4"
           id="path233"
           style="fill:#6750a4" />
      </g>
      <path
         class="st0"
         d="m 1406.3237,1042.0988 v 219.1302 c 34.2787,-4.4862 60.9654,-34.0486 60.9654,-69.4776 v -149.6526 z"
         id="path234"
         style="fill:#6750a4;stroke-width:1.15029" />
      <path
         class="st0"
         d="m 782.29166,1198.3081 c -3.1057,0 -5.6364,-2.5306 -5.6364,-5.6364 v -84.2012 c 0.8052,-2.1856 2.8758,-3.6809 5.2914,-3.6809 h 73.0433 c -3.5658,-35.1989 -33.5884,-62.9209 -69.7075,-62.9209 v 0 c -38.5347,0 -70.05263,31.518 -70.05263,70.0527 v 79.1399 c 0,30.1376 19.32487,56.0191 46.24164,65.7966 0.11511,0 0.23006,0.1151 0.34508,0.1151 0.23007,0.1151 0.46012,0.1151 0.57514,0.23 7.24683,2.5307 15.06877,3.911 23.12087,3.911 v 0 c 36.1191,0 66.0266,-27.722 69.7075,-62.9208 h -72.9284 z"
         id="path235"
         style="fill:#6750a4;stroke-width:1.15029" />
      <path
         class="st0"
         d="m 1569.6649,1261.459 v -150.1128 c 0,-3.1058 2.5306,-5.6364 5.6365,-5.6364 h 29.4473 c 3.1058,0 5.6364,2.5306 5.6364,5.6364 v 150.1128 c 34.2786,-4.4861 60.9654,-34.0486 60.9654,-69.4775 v -79.1399 c 0,-38.5347 -31.5179,-70.0527 -70.0527,-70.0527 v 0 c -3.7958,0 -18.7496,0 -22.5457,0 v 0 c -38.5346,0 -70.0526,31.518 -70.0526,70.0527 v 79.1399 c 0,35.4289 26.6867,64.9914 60.9654,69.4775 z"
         id="path236"
         style="fill:#6750a4;stroke-width:1.15029" />
      <g
         id="g238"
         transform="matrix(1.1502895,0,0,1.1502895,141.12033,646.05411)">
        <path
           class="st0"
           d="m 1092.2,280.6 c -0.5,0.3 -0.8,0.6 -1,1.1 0.2,0.2 0.6,0.4 1.1,0.4 l 32,0.6 c 1.6,0 3.6,-1.1 4.4,-2.5 l 15.9,-27.7 c 0.3,-0.5 0.3,-0.9 0.2,-1.2 -0.5,-0.1 -1,0 -1.4,0.3 z"
           id="path237"
           style="fill:#6750a4" />
        <path
           class="st0"
           d="m 1146.2,253.3 -15.9,27.7 c -0.6,1 -1.5,1.8 -2.6,2.5 -1.1,0.6 -2.3,1 -3.4,1 l -32,-0.6 c -0.4,0 -0.8,-0.1 -1.1,-0.2 0,0.1 0.1,0.1 0.1,0.2 l 17.6,31 c 0.7,1.2 2.1,1.6 3.3,0.9 l 51.2,-29 c 1.2,-0.7 1.6,-2.1 0.9,-3.3 l -17.6,-31 c 0,-0.1 -0.1,-0.1 -0.1,-0.2 -0.1,0.4 -0.2,0.7 -0.4,1 z"
           id="path238"
           style="fill:#6750a4" />
      </g>
      <path
         class="st0"
         d="m 608.25291,1042.5589 h 3.79594 c 36.23413,0 66.37172,27.2619 70.97288,62.3457 h -76.37924 c -3.10578,0 -5.75145,2.5306 -5.75145,5.7514 v 74.7688 c -36.00405,-3.6809 -64.30117,-34.2786 -64.30117,-71.2029 v 0 c 0,-39.4549 32.20809,-71.663 71.66304,-71.663 z"
         id="path239"
         style="fill:#6750a4;stroke-width:1.15029" />
      <path
         class="st0"
         d="m 593.29914,1260.6538 h -3.79596 c -36.23411,0 -66.3717,-27.2619 -70.97286,-62.3457 h 76.37922 c 3.10578,0 5.75145,-2.5306 5.75145,-5.7515 v -74.7688 c 36.00406,3.681 64.30119,34.2787 64.30119,71.203 v 0 c 0,39.4549 -32.20811,71.663 -71.66304,71.663 z"
         id="path240"
         style="fill:#6750a4;stroke-width:1.15029" />
    </g>
  </g>
</svg>
