<svg width="46" height="46" viewBox="0 0 46 46" fill="none" xmlns="http://www.w3.org/2000/svg">
<g clip-path="url(#clip0_21_50)">
<rect width="46" height="46" rx="23" fill="white"/>
<path d="M20.7105 28.0455V27.9006C20.7266 26.3632 20.8876 25.1397 21.1934 24.2301C21.4993 23.3205 21.934 22.584 22.4974 22.0206C23.0609 21.4571 23.737 20.938 24.5258 20.4631C25.0007 20.1733 25.4273 19.8312 25.8057 19.4368C26.184 19.0343 26.4818 18.5715 26.6991 18.0483C26.9245 17.5251 27.0372 16.9455 27.0372 16.3097C27.0372 15.5208 26.8521 14.8366 26.4818 14.2571C26.1115 13.6776 25.6165 13.2308 24.9967 12.9169C24.3769 12.603 23.6887 12.446 22.9321 12.446C22.272 12.446 21.6362 12.5829 21.0244 12.8565C20.4127 13.1302 19.9015 13.5608 19.491 14.1484C19.0805 14.736 18.8431 15.5047 18.7787 16.4545H15.7361C15.8005 15.0862 16.1546 13.915 16.7986 12.9411C17.4506 11.9671 18.3078 11.2225 19.3703 10.7074C20.4408 10.1922 21.6281 9.93466 22.9321 9.93466C24.3488 9.93466 25.5803 10.2164 26.6267 10.7798C27.6811 11.3433 28.4941 12.116 29.0656 13.098C29.6452 14.08 29.9349 15.1989 29.9349 16.4545C29.9349 17.34 29.7981 18.1409 29.5244 18.8572C29.2588 19.5736 28.8724 20.2135 28.3653 20.777C27.8663 21.3404 27.2626 21.8395 26.5542 22.2741C25.8459 22.7169 25.2784 23.1837 24.8518 23.6747C24.4252 24.1577 24.1153 24.7332 23.9221 25.4013C23.729 26.0694 23.6243 26.9025 23.6082 27.9006V28.0455H20.7105ZM22.2559 35.1932C21.6603 35.1932 21.1492 34.9799 20.7226 34.5533C20.296 34.1267 20.0827 33.6155 20.0827 33.0199C20.0827 32.4242 20.296 31.9131 20.7226 31.4865C21.1492 31.0599 21.6603 30.8466 22.2559 30.8466C22.8516 30.8466 23.3627 31.0599 23.7893 31.4865C24.2159 31.9131 24.4292 32.4242 24.4292 33.0199C24.4292 33.4143 24.3286 33.7765 24.1274 34.1065C23.9342 34.4366 23.6726 34.7022 23.3426 34.9034C23.0206 35.0966 22.6584 35.1932 22.2559 35.1932Z" fill="#6750A4"/>
</g>
<defs>
<clipPath id="clip0_21_50">
<rect width="46" height="46" rx="23" fill="white"/>
</clipPath>
</defs>
</svg>
