<svg width="46" height="46" viewBox="0 0 46 46" fill="none" xmlns="http://www.w3.org/2000/svg">
<g clip-path="url(#clip0_21_388)">
<rect width="46" height="46" rx="23" fill="#6750A4"/>
<path d="M15.06 33.538L13.734 32.11L17.882 28.03C17.27 27.282 16.8053 26.4887 16.488 25.65C16.1933 24.8113 16.046 23.916 16.046 22.964C16.046 21.5133 16.3973 20.1987 17.1 19.02C17.8253 17.8187 18.7887 16.8667 19.99 16.164C21.1913 15.4387 22.506 15.076 23.934 15.076C25.3847 15.076 26.6993 15.4387 27.878 16.164C29.0793 16.8667 30.0313 17.8187 30.734 19.02C31.4593 20.1987 31.822 21.5133 31.822 22.964C31.822 24.392 31.4593 25.7067 30.734 26.908C30.0313 28.1093 29.0793 29.0727 27.878 29.798C26.6993 30.5007 25.3847 30.852 23.934 30.852C23.0727 30.852 22.2567 30.7273 21.486 30.478C20.7153 30.2287 19.99 29.8547 19.31 29.356L15.06 33.538ZM23.934 28.71C24.9767 28.71 25.9287 28.4607 26.79 27.962C27.674 27.4407 28.3767 26.7493 28.898 25.888C29.4193 25.004 29.68 24.0293 29.68 22.964C29.68 21.8987 29.4193 20.9353 28.898 20.074C28.3767 19.19 27.6853 18.4987 26.824 18C25.9627 17.4787 24.9993 17.218 23.934 17.218C22.8687 17.218 21.894 17.4787 21.01 18C20.1487 18.4987 19.4573 19.19 18.936 20.074C18.4373 20.9353 18.188 21.8987 18.188 22.964C18.188 24.0293 18.4373 25.004 18.936 25.888C19.4573 26.7493 20.1487 27.4407 21.01 27.962C21.894 28.4607 22.8687 28.71 23.934 28.71Z" fill="white"/>
</g>
<defs>
<clipPath id="clip0_21_388">
<rect width="46" height="46" rx="23" fill="white"/>
</clipPath>
</defs>
</svg>
