<?xml version="1.0" encoding="UTF-8" standalone="no"?>
<!-- Created with Inkscape (http://www.inkscape.org/) -->

<svg
   width="190mm"
   height="70mm"
   viewBox="0 0 190 70"
   version="1.1"
   id="svg1"
   xmlns="http://www.w3.org/2000/svg"
   xmlns:svg="http://www.w3.org/2000/svg">
  <defs
     id="defs1" />
  <g
     id="layer1">
    <g
       id="g240"
       transform="matrix(0.26458333,0,0,0.26458333,-124.12839,24.914392)">
	<path
   class="st0"
   d="m 705.50525,44.190008 v 44.82732 c 0,20.068042 15.11619,36.813132 34.53267,39.354212 V 43.342978 c 0,-1.75921 1.43343,-3.19264 3.19264,-3.19264 h 41.37405 C 782.58478,20.212608 765.57906,4.5100181 745.12009,4.5100181 v 0 c -21.7621,0 -39.61484,17.8527399 -39.61484,39.6799899 z"
   id="path230"
   style="fill:#6750a4;stroke-width:0.65156" />

	<path
   class="st0"
   d="M 854.97307,4.5100181 V 89.473418 c 0,1.75921 -1.43343,3.19264 -3.19264,3.19264 H 835.1005 c -1.75921,0 -3.19264,-1.43343 -3.19264,-3.19264 V 4.5100181 c -19.41649,2.54108 -34.53268,19.2861699 -34.53268,39.3542099 v 44.82732 c 0,21.827252 17.85274,39.679992 39.68,39.679992 v 0 c 2.15015,0 10.62042,0 12.77057,0 v 0 c 21.82726,0 39.68,-17.85274 39.68,-39.679992 v -44.82732 c 0,-20.06804 -15.11619,-36.8131299 -34.53268,-39.3542099 z"
   id="path231"
   style="fill:#6750a4;stroke-width:0.65156" />

	<g
   id="g233"
   transform="matrix(0.65155983,0,0,0.65155983,288.76758,-220.14781)">
		<path
   class="st0"
   d="m 953.8,405.7 v 68.8 c 0,30.8 23.2,56.5 53,60.4 V 404.4 c 0,-2.7 2.2,-4.9 4.9,-4.9 h 63.5 c -3.1,-30.6 -29.2,-54.7 -60.6,-54.7 v 0 c -33.4,0 -60.8,27.4 -60.8,60.9 z"
   id="path232"
   style="fill:#6750a4" />

		<path
   class="st0"
   d="m 953.8,425.2 v -68.8 c 0,-30.8 23.2,-56.5 53,-60.4 v 130.4"
   id="path233"
   style="fill:#6750a4" />

	</g>

	<path
   class="st0"
   d="M 1005.4182,4.1842381 V 128.30639 c 19.4165,-2.54109 34.5327,-19.28617 34.5327,-39.354222 V 4.1842381 Z"
   id="path234"
   style="fill:#6750a4;stroke-width:0.65156" />

	<path
   class="st0"
   d="m 651.94703,92.666058 c -1.75921,0 -3.19264,-1.43343 -3.19264,-3.19264 v -47.69418 c 0.45609,-1.23796 1.6289,-2.08499 2.99717,-2.08499 h 41.37405 C 691.10578,19.756518 674.10006,4.0539281 653.64109,4.0539281 v 0 c -21.82726,0 -39.68,17.8527399 -39.68,39.6799899 v 44.82732 c 0,17.070862 10.94621,31.730962 26.19271,37.269222 0.0652,0 0.13031,0.0652 0.19546,0.0652 0.13032,0.0652 0.26063,0.0652 0.32578,0.13032 4.10483,1.43343 8.53544,2.2153 13.09636,2.2153 v 0 c 20.45898,0 37.39953,-15.70259 39.48452,-35.640322 h -41.30889 z"
   id="path235"
   style="fill:#6750a4;stroke-width:0.65156" />

	<path
   class="st0"
   d="M 1097.9397,128.4367 V 43.408138 c 0,-1.75921 1.4334,-3.19264 3.1927,-3.19264 h 16.6799 c 1.7592,0 3.1926,1.43343 3.1926,3.19264 V 128.4367 c 19.4165,-2.54109 34.5327,-19.28617 34.5327,-39.354222 v -44.82731 c 0,-21.82726 -17.8527,-39.6799999 -39.68,-39.6799999 v 0 c -2.1501,0 -10.6204,0 -12.7706,0 v 0 c -21.8272,0 -39.68,17.8527399 -39.68,39.6799999 v 44.82731 c 0,20.068052 15.1162,36.813132 34.5327,39.354222 z"
   id="path236"
   style="fill:#6750a4;stroke-width:0.65156" />

	<g
   id="g238"
   transform="matrix(0.65155983,0,0,0.65155983,288.76758,-220.14781)">
		<path
   class="st0"
   d="m 1092.2,280.6 c -0.5,0.3 -0.8,0.6 -1,1.1 0.2,0.2 0.6,0.4 1.1,0.4 l 32,0.6 c 1.6,0 3.6,-1.1 4.4,-2.5 l 15.9,-27.7 c 0.3,-0.5 0.3,-0.9 0.2,-1.2 -0.5,-0.1 -1,0 -1.4,0.3 z"
   id="path237"
   style="fill:#6750a4" />

		<path
   class="st0"
   d="m 1146.2,253.3 -15.9,27.7 c -0.6,1 -1.5,1.8 -2.6,2.5 -1.1,0.6 -2.3,1 -3.4,1 l -32,-0.6 c -0.4,0 -0.8,-0.1 -1.1,-0.2 0,0.1 0.1,0.1 0.1,0.2 l 17.6,31 c 0.7,1.2 2.1,1.6 3.3,0.9 l 51.2,-29 c 1.2,-0.7 1.6,-2.1 0.9,-3.3 l -17.6,-31 c 0,-0.1 -0.1,-0.1 -0.1,-0.2 -0.1,0.4 -0.2,0.7 -0.4,1 z"
   id="path238"
   style="fill:#6750a4" />

	</g>

	<path
   class="st0"
   d="m 553.36603,4.4448581 h 2.15014 c 20.52414,0 37.59501,15.4419699 40.20125,35.3145399 h -43.26358 c -1.75921,0 -3.2578,1.43344 -3.2578,3.2578 v 42.35139 c -20.39382,-2.08499 -36.42219,-19.41648 -36.42219,-40.33155 v 0 c 0,-22.3485 18.24367,-40.5921799 40.59218,-40.5921799 z"
   id="path239"
   style="fill:#6750a4;stroke-width:0.65156" />

	<path
   class="st0"
   d="m 544.89575,127.98061 h -2.15015 c -20.52413,0 -37.595,-15.44197 -40.20124,-35.314552 h 43.26357 c 1.75921,0 3.2578,-1.43343 3.2578,-3.2578 v -42.35138 c 20.39382,2.08499 36.4222,19.41648 36.4222,40.33155 v 0 c 0,22.348502 -18.24368,40.592182 -40.59218,40.592182 z"
   id="path240"
   style="fill:#6750a4;stroke-width:0.65156" />

</g>
  </g>
</svg>
